<svg width="32768" height="25412" viewBox="0 0 32768 25412" fill="none" xmlns="http://www.w3.org/2000/svg">
<rect width="32768" height="25411.9" fill="#F5F5F5"/>
<rect width="50176" height="38912" transform="scale(0.653061)" fill="white"/>
<path d="M14257.7 13237.5H13407.2C12378.1 13237.5 11812.5 13803.1 11812.5 14832.2V15682.7C11812.5 16711.8 12378.1 17277.4 13407.2 17277.4H14257.7C15286.9 17277.4 15852.4 16711.8 15852.4 15682.7V14832.2C15852.4 13803.1 15286.9 13237.5 14257.7 13237.5ZM13407.2 16639.5C12735.3 16639.5 12450.4 16354.6 12450.4 15682.7V14832.2C12450.4 14160.3 12735.3 13875.4 13407.2 13875.4H14257.7C14929.6 13875.4 15214.6 14160.3 15214.6 14832.2V15682.7C15214.6 16354.6 14929.6 16639.5 14257.7 16639.5H13407.2Z" fill="#787486"/>
<path d="M19360.8 13237.5H18510.3C17481.2 13237.5 16915.6 13803.1 16915.6 14832.2V15682.7C16915.6 16711.8 17481.2 17277.4 18510.3 17277.4H19360.8C20389.9 17277.4 20955.5 16711.8 20955.5 15682.7V14832.2C20955.5 13803.1 20389.9 13237.5 19360.8 13237.5ZM18510.3 16639.5C17838.4 16639.5 17553.4 16354.6 17553.4 15682.7V14832.2C17553.4 14160.3 17838.4 13875.4 18510.3 13875.4H19360.8C20032.7 13875.4 20317.6 14160.3 20317.6 14832.2V15682.7C20317.6 16354.6 20032.7 16639.5 19360.8 16639.5H18510.3Z" fill="#787486"/>
<path d="M19360.8 8134.51H18510.3C17481.2 8134.51 16915.6 8700.09 16915.6 9729.2V10579.7C16915.6 11608.8 17481.2 12174.4 18510.3 12174.4H19360.8C20389.9 12174.4 20955.5 11608.8 20955.5 10579.7V9729.2C20955.5 8700.09 20389.9 8134.51 19360.8 8134.51ZM18510.3 11536.5C17838.4 11536.5 17553.4 11251.6 17553.4 10579.7V9729.2C17553.4 9057.3 17838.4 8772.38 18510.3 8772.38H19360.8C20032.7 8772.38 20317.6 9057.3 20317.6 9729.2V10579.7C20317.6 11251.6 20032.7 11536.5 19360.8 11536.5H18510.3Z" fill="#787486"/>
<path d="M14257.7 8134.51H13407.2C12378.1 8134.51 11812.5 8700.09 11812.5 9729.2V10579.7C11812.5 11608.8 12378.1 12174.4 13407.2 12174.4H14257.7C15286.9 12174.4 15852.4 11608.8 15852.4 10579.7V9729.2C15852.4 8700.09 15286.9 8134.51 14257.7 8134.51ZM13407.2 11536.5C12735.3 11536.5 12450.4 11251.6 12450.4 10579.7V9729.2C12450.4 9057.3 12735.3 8772.38 13407.2 8772.38H14257.7C14929.6 8772.38 15214.6 9057.3 15214.6 9729.2V10579.7C15214.6 11251.6 14929.6 11536.5 14257.7 11536.5H13407.2Z" fill="#787486"/>
</svg>
