<svg width="32768" height="25412" viewBox="0 0 32768 25412" fill="none" xmlns="http://www.w3.org/2000/svg">
<rect width="32768" height="25411.9" fill="#F5F5F5"/>
<rect width="50176" height="38912" transform="scale(0.653061)" fill="white"/>
<path opacity="0.6" d="M18581.5 16941.3C18581.5 18815.4 17735.4 20509.5 16384 21663.7C15219.3 22680.1 13681 23294.3 11988.9 23294.3C8352.04 23294.3 5396.38 20446 5396.38 16941.3C5396.38 14018.9 7462.04 11541.2 10252.9 10810.7C11011 12653 12637.2 14071.8 14647.9 14601.3C15197.3 14749.5 15779.6 14823.6 16384 14823.6C16988.3 14823.6 17570.6 14749.5 18120 14601.3C18416.7 15321.3 18581.5 16115.4 18581.5 16941.3Z" fill="#5030E5"/>
<path d="M22976.5 8470.64C22976.5 9296.53 22811.7 10090.6 22515 10810.7C21756.9 12653 20130.7 14071.8 18120 14601.3C17570.6 14749.5 16988.3 14823.6 16384 14823.6C15779.6 14823.6 15197.3 14749.5 14647.9 14601.3C12637.2 14071.8 11011 12653 10252.9 10810.7C9956.23 10090.6 9791.41 9296.53 9791.41 8470.64C9791.41 4965.91 12747.1 2117.66 16384 2117.66C20020.9 2117.66 22976.5 4965.91 22976.5 8470.64Z" fill="#5030E5"/>
<path opacity="0.4" d="M27371.6 16941.3C27371.6 20446 24415.9 23294.3 20779 23294.3C19086.9 23294.3 17548.6 22680.1 16384 21663.7C17735.4 20509.5 18581.5 18815.4 18581.5 16941.3C18581.5 16115.4 18416.7 15321.3 18120 14601.3C20130.7 14071.8 21756.9 12653 22515 10810.7C25305.9 11541.2 27371.6 14018.9 27371.6 16941.3Z" fill="#5030E5"/>
</svg>
